<svg width="84" height="77" viewBox="0 0 84 77" fill="none" xmlns="http://www.w3.org/2000/svg">
<g clip-path="url(#clip0_5_607)">
<path d="M66.9133 40.3177C67.1773 39.046 67.6298 37.8201 68.2573 36.6842L68.4847 36.2649C68.4451 36.2091 68.3947 36.1611 68.3365 36.1261C68.297 36.0752 68.2514 36.0313 68.1981 35.9955C68.1595 35.9446 68.113 35.9007 68.0597 35.8657L67.9709 35.7458C67.9471 35.7229 67.9264 35.696 67.9114 35.6671L67.8325 35.5761C67.7999 35.5333 67.7741 35.4864 67.7533 35.4363C67.696 35.3127 67.5805 35.2267 67.4471 35.2068H67.3976V35.157L67.3384 35.0481C67.3195 35.0153 67.3037 34.9813 67.289 34.9474C67.1496 34.8324 67.0112 34.7168 66.8738 34.5989L66.8146 34.518C66.7592 34.4251 66.685 34.3435 66.5971 34.2786C66.5773 34.2336 66.5546 34.1897 66.528 34.1487C66.4816 34.0609 66.4034 33.9939 66.3106 33.9591V33.8991C66.269 33.8293 66.2069 33.7733 66.1327 33.7394C66.0962 33.6736 66.0496 33.6127 65.9944 33.5597C65.9419 33.5009 65.8778 33.453 65.8066 33.421C65.761 33.3482 65.7077 33.2814 65.6485 33.2214C65.6029 33.1456 65.5496 33.0756 65.4904 33.0118L65.4013 32.9409L65.3224 32.852L65.1741 32.7222C65.1533 32.6794 65.1226 32.6414 65.0851 32.6115C65.0378 32.5485 64.9805 32.4906 64.9171 32.4418L64.769 32.2821C64.7136 32.1862 64.6354 32.1073 64.5416 32.0534L64.4725 31.9826C64.417 31.9257 64.3666 31.8608 64.3242 31.7929C64.2896 31.7431 64.2461 31.6992 64.1957 31.6631C64.1543 31.6251 64.1176 31.5823 64.0871 31.5333C64.0426 31.4686 63.9813 31.4166 63.9091 31.3846C63.8696 31.3218 63.8143 31.2709 63.7511 31.234C63.6946 31.1871 63.6365 31.143 63.5731 31.1052L63.504 31.0242C63.4555 30.9765 63.412 30.9234 63.3754 30.8647C63.325 30.7907 63.253 30.7338 63.168 30.705L63.0791 30.5751C63.0424 30.5113 62.9872 30.4593 62.921 30.4264L62.8616 30.3656C62.8112 30.3047 62.7549 30.2476 62.6936 30.1959C62.6125 30.135 62.5376 30.068 62.4664 29.996C62.4149 29.9292 62.3586 29.8664 62.2984 29.8064L62.2093 29.7267L62.16 29.6768C62.1016 29.6028 62.0354 29.536 61.9624 29.477L61.8437 29.3673L61.7845 29.3073H61.7251C61.649 29.1756 61.5442 29.0627 61.4189 28.9779H61.3397C61.2794 28.8542 61.1954 28.7414 61.0927 28.6495L61.0048 28.5288C60.9583 28.4518 60.8882 28.3931 60.8061 28.36L60.6874 28.2293C60.645 28.1913 60.5986 28.1574 60.5491 28.1304L60.4405 28.0397L60.3712 27.9798C60.3208 27.9158 60.2635 27.856 60.2032 27.8L59.9661 27.5704C59.8624 27.4029 59.725 27.2601 59.561 27.1521L59.4818 27.0614L59.3632 26.9116C59.3029 26.8507 59.2288 26.8057 59.1458 26.7818H59.0965C59.0242 26.712 58.957 26.6352 58.8989 26.5523V26.4924C58.8128 26.3947 58.7042 26.3187 58.5826 26.2727V26.2139C58.5232 26.1011 58.4392 26.0063 58.3354 25.9333C58.2565 25.8236 58.1458 25.7398 58.0192 25.6949C57.9413 25.581 57.8394 25.4861 57.7229 25.4142L57.6042 25.2747L57.4856 25.1448C57.4392 25.0818 57.373 25.0371 57.2989 25.015L57.1891 24.9461C57.1487 24.9121 57.1013 24.8882 57.0517 24.8752C57.0192 24.8254 56.9826 24.7785 56.9421 24.7365C56.9056 24.6926 56.872 24.6457 56.8442 24.5959C56.7928 24.5458 56.7365 24.5019 56.6752 24.4671C56.6111 24.3952 56.5221 24.3521 56.4282 24.3462L56.3293 24.2264C56.3018 24.1886 56.269 24.1555 56.2306 24.1267L56.1613 24.0168C56.1101 23.929 56.0299 23.8611 55.9341 23.8271L55.8451 23.7272C55.7671 23.6364 55.6634 23.5707 55.5487 23.5376C55.5053 23.4877 55.4656 23.4339 55.4301 23.3779C55.3728 23.283 55.2808 23.2152 55.1731 23.1882L55.0645 23.0786C55.0082 23.0026 54.9379 22.9377 54.857 22.8898C54.8095 22.834 54.7562 22.7839 54.6989 22.7392C54.6474 22.6721 54.5872 22.6123 54.521 22.5595C54.424 22.4057 54.2877 22.2818 54.1266 22.201L54.0367 22.1412V22.0903L53.9773 22.0303L53.9082 21.9715C53.8498 21.9155 53.7877 21.8657 53.7205 21.8207C53.6562 21.7358 53.5752 21.665 53.4832 21.6111L53.4338 21.5513C53.3381 21.4474 53.2274 21.3566 53.1077 21.2817C53.0554 21.2118 52.9922 21.1519 52.92 21.102L52.8607 21.0222C52.7935 20.9303 52.6946 20.8664 52.584 20.8425H52.5346C52.4466 20.7147 52.328 20.6109 52.1896 20.543C52.1106 20.4692 52.0157 20.4153 51.912 20.3833C51.8685 20.3294 51.8162 20.2855 51.7538 20.2535L51.656 20.1847C51.568 20.0978 51.4634 20.0289 51.3487 19.984C51.2954 19.9431 51.24 19.9062 51.1807 19.8752C51.153 19.8363 51.1205 19.8024 51.0818 19.7744C50.9909 19.7165 50.908 19.6456 50.8349 19.5648C50.7834 19.5079 50.7181 19.463 50.6471 19.436C50.6045 19.3911 50.568 19.3402 50.5384 19.2853C50.4691 19.1525 50.3317 19.0707 50.1826 19.0756H50.1341L49.9661 18.9059C49.8949 18.846 49.809 18.8081 49.7191 18.7961C49.6568 18.7223 49.5877 18.6554 49.5106 18.5965C49.4829 18.5835 49.4592 18.5626 49.4413 18.5366L49.3624 18.4667L49.225 18.3569L49.1053 18.2671C49.0234 18.1922 48.9256 18.1373 48.8189 18.1074C48.7901 18.0644 48.7536 18.0265 48.7101 17.9986C48.6557 17.9127 48.5757 17.8458 48.4837 17.8079C48.4325 17.766 48.376 17.733 48.3149 17.7091C48.2941 17.6881 48.2783 17.6652 48.2653 17.6382C48.2477 17.6102 48.2239 17.5873 48.1973 17.5683C48.1477 17.5214 48.0944 17.4785 48.0381 17.4396C47.9917 17.4126 47.9482 17.3787 47.9106 17.3387C47.8375 17.2479 47.7506 17.1711 47.6527 17.1092L47.5834 17.0393C47.5085 16.9574 47.4077 16.9045 47.297 16.8895C47.2554 16.8386 47.2099 16.7917 47.1586 16.7508C47.1181 16.6939 47.0637 16.649 47.0005 16.62C46.9757 16.5861 46.9461 16.5551 46.9114 16.5302C46.8858 16.5092 46.8631 16.4863 46.8424 16.4613C46.7485 16.3695 46.6368 16.2986 46.5162 16.2517C46.4371 16.1658 46.3432 16.094 46.2394 16.0411L45.1722 14.964C45.1435 14.939 45.1168 14.9121 45.0931 14.8841H45.0437L44.9351 14.7833C44.8501 14.7015 44.7571 14.6286 44.6584 14.5637H44.609C44.5714 14.5158 44.5288 14.4719 44.4805 14.4339L44.4013 14.374C44.3173 14.3211 44.2226 14.2832 44.1247 14.2642C44.089 14.2253 44.0594 14.1824 44.0368 14.1355L43.9469 14.0446C43.8599 13.9648 43.7541 13.9069 43.6405 13.8749C43.5842 13.8101 43.512 13.7591 43.433 13.7252C43.3608 13.6473 43.2778 13.5805 43.1858 13.5256L43.1069 13.4667C43.0544 13.4157 42.9901 13.3808 42.9191 13.3658L42.8202 13.256C42.753 13.1622 42.6472 13.1043 42.5336 13.0963C42.4456 13.0055 42.3418 12.9306 42.2282 12.8767C42.1314 12.7619 41.9981 12.6841 41.8517 12.6581L41.753 12.5872C41.7133 12.5503 41.6797 12.5064 41.6541 12.4575C41.6056 12.3696 41.5237 12.3057 41.4269 12.2778L41.2291 12.1789C41.1293 12.0731 41.0077 11.9913 40.8733 11.9384L40.7549 11.8485L40.6066 11.6689C40.577 11.6289 40.5354 11.598 40.488 11.579C40.4336 11.4672 40.3328 11.3864 40.2112 11.3594C40.1509 11.3005 40.0759 11.2596 39.9938 11.2406C39.9287 11.1548 39.8328 11.1009 39.7271 11.0899C39.6935 11.031 39.6499 10.9761 39.5986 10.9312C39.5333 10.8883 39.4592 10.8643 39.3811 10.8603L39.3218 10.8004C39.2813 10.7166 39.2162 10.6467 39.1341 10.6008H39.0847C39.0629 10.5279 39.0333 10.458 38.9957 10.3921C38.9424 10.3133 38.8663 10.2544 38.7784 10.2224C38.7536 10.1566 38.7082 10.1007 38.6498 10.0617V10.0118C38.6488 9.92298 38.6221 9.83613 38.5709 9.76227V9.68341C38.5709 9.56362 38.5402 9.44683 38.4818 9.34302C38.5234 9.29011 38.561 9.23422 38.5906 9.17332C38.7032 8.93674 38.6687 8.65625 38.5016 8.45561C38.4205 8.3498 38.297 8.2879 38.1656 8.28491H38.0371C37.9066 8.28691 37.7821 8.34081 37.6912 8.43565L37.5341 8.53447L37.4245 8.61432C37.285 8.64526 37.1536 8.70716 37.04 8.794L36.9304 8.86388C36.8789 8.88483 36.8325 8.91578 36.793 8.95471L36.7031 9.05353L36.5855 9.18431H36.4954C36.3157 9.27215 36.1525 9.38994 36.0112 9.53267C35.8699 9.61553 35.7514 9.73232 35.6653 9.87207C35.5042 9.91301 35.36 10.0078 35.2602 10.1426C35.1456 10.2324 35.0437 10.3363 34.9538 10.452C34.8264 10.5319 34.7098 10.6287 34.609 10.7405L34.5389 10.8204C34.5002 10.8573 34.4706 10.9012 34.4498 10.9511C34.4301 11.0001 34.4034 11.047 34.3709 11.0899C34.2482 11.1109 34.1405 11.1837 34.0754 11.2895C33.9538 11.3624 33.856 11.4662 33.7877 11.589L33.6602 11.6998L33.4528 11.8785C33.3984 11.9174 33.349 11.9604 33.3034 12.0083C33.169 12.0302 33.0575 12.1211 33.0071 12.2478L32.9378 12.3277C32.845 12.4415 32.7719 12.5702 32.7205 12.707L32.6216 12.8468L32.5229 12.9166C32.4418 13.0025 32.3687 13.0963 32.3053 13.1971L32.2461 13.286L32.1571 13.3559C32.0021 13.3898 31.8794 13.5096 31.841 13.6653C31.8458 13.6853 31.8458 13.7052 31.841 13.7252L31.7125 13.855C31.6808 13.8949 31.6541 13.9388 31.6333 13.9847C31.6048 14.0726 31.5642 14.1564 31.5149 14.2343L31.4653 14.3042C31.2984 14.397 31.169 14.5447 31.0997 14.7234C30.9565 14.8282 30.8378 14.966 30.7538 15.1227C30.7162 15.2305 30.6472 15.3243 30.5562 15.3922C30.5562 15.3922 30.5069 15.3922 30.497 15.4721C30.488 15.5519 30.497 15.4721 30.3882 15.4721C30.244 15.505 30.1293 15.6168 30.0917 15.7616C30.0938 15.7815 30.0938 15.8015 30.0917 15.8215C30.0581 15.8824 30.0325 15.9452 30.0127 16.0111C29.9554 16.071 29.9119 16.1429 29.8842 16.2207C29.7853 16.2537 29.6935 16.3086 29.6173 16.3815C29.5709 16.4224 29.5333 16.4733 29.5087 16.5302V16.6001V16.7099C29.4653 16.7538 29.4256 16.7997 29.3901 16.8496L29.321 16.9295C29.3032 16.9584 29.2805 16.9824 29.2528 16.9993C29.1421 17.0902 29.0512 17.203 28.985 17.3288C28.9424 17.3787 28.888 17.4166 28.8269 17.4396C28.7498 17.4655 28.6826 17.5184 28.64 17.5883C28.5738 17.6811 28.5154 17.778 28.4611 17.8788C28.4314 17.9357 28.3939 17.9886 28.3525 18.0375C28.2101 18.1154 28.0936 18.2331 28.0175 18.3779C28.0175 18.3779 27.9671 18.4378 27.9077 18.4867C27.8474 18.5426 27.7912 18.6025 27.7397 18.6674C27.6666 18.7392 27.6074 18.8231 27.5629 18.9169C27.5242 18.9479 27.4906 18.9848 27.4631 19.0257C27.3237 19.1445 27.2071 19.2863 27.1171 19.445C27.0125 19.4909 26.9125 19.5478 26.8216 19.6147C26.7832 19.6536 26.7485 19.6975 26.7218 19.7444C26.6557 19.8553 26.5826 19.9621 26.5045 20.0639L26.456 20.1248C26.3749 20.2006 26.3048 20.2875 26.2485 20.3833L26.1784 20.4731C26.1349 20.5061 26.0983 20.547 26.0696 20.5929C26.0261 20.6508 25.9757 20.7047 25.9224 20.7527L25.8029 20.8824C25.693 20.9683 25.5983 21.0731 25.5261 21.1919C25.5261 21.1919 25.4767 21.2817 25.457 21.2917L25.3976 21.3617C25.368 21.3986 25.3314 21.4295 25.289 21.4514C25.2168 21.4993 25.1496 21.5562 25.0922 21.6221C25.0666 21.64 25.0469 21.6639 25.032 21.6909C25.0082 21.735 24.9776 21.7749 24.9431 21.8107C24.8936 21.8915 24.8245 21.9704 24.7661 22.0803C24.616 22.1891 24.4994 22.3378 24.4301 22.5094C24.2434 22.6234 24.104 22.8009 24.0338 23.0086L23.7967 23.2782C23.6474 23.394 23.521 23.5357 23.4211 23.6973C23.3045 23.7663 23.1919 23.843 23.0851 23.9279C23.0298 23.9718 22.9864 24.0308 22.9576 24.0967C22.933 24.1625 22.9034 24.2264 22.8688 24.2864C22.7512 24.3303 22.6592 24.4262 22.6216 24.5458C22.6018 24.5948 22.5792 24.6417 22.5514 24.6856C22.5101 24.7015 22.4704 24.7217 22.433 24.7454C22.3568 24.8074 22.2877 24.8782 22.2253 24.9552C22.2016 24.9851 22.1749 25.012 22.1464 25.035C22.0525 25.0869 21.9823 25.1728 21.9487 25.2747L21.8893 25.3854C21.8301 25.4772 21.7837 25.578 21.752 25.6838C21.6808 25.7528 21.6146 25.8266 21.5544 25.9044C21.4466 25.9812 21.3557 26.0801 21.2866 26.1929C21.1858 26.2578 21.0959 26.3387 21.0208 26.4324C20.9051 26.5084 20.8083 26.6072 20.7341 26.722C20.6215 26.7799 20.5217 26.8588 20.4377 26.9515L20.3774 27.0215C20.3408 27.0444 20.3112 27.0743 20.2884 27.1123H20.2301C20.1274 27.1551 20.0335 27.2162 19.9524 27.2909L19.8932 27.3708C19.8457 27.4646 19.7746 27.5446 19.6856 27.6004C19.6184 27.6513 19.567 27.7202 19.5384 27.8L19.4682 27.9009C19.402 27.9597 19.3427 28.0267 19.2913 28.0995L19.2212 28.1794C19.1609 28.2352 19.1045 28.2953 19.0532 28.36C19.0265 28.3909 19.0057 28.4289 18.9948 28.4688C18.9721 28.5267 18.9425 28.5806 18.9049 28.6296C18.7923 28.7085 18.7004 28.8143 18.6381 28.938V28.998L18.5689 29.0778C18.5076 29.1537 18.4513 29.2335 18.4009 29.3173L18.3515 29.3781L18.2932 29.4471C18.2122 29.4861 18.1489 29.554 18.1143 29.6367C18.0916 29.6666 18.0639 29.6927 18.0353 29.7167L17.976 29.7865C17.8692 29.8524 17.7773 29.9403 17.7092 30.0461C17.6093 30.1358 17.5293 30.2436 17.473 30.3656L17.3336 30.5353C17.2615 30.5891 17.2002 30.657 17.1557 30.7349C17.1281 30.7567 17.1053 30.7837 17.0866 30.8146C17.0283 30.8846 16.9779 30.9614 16.9393 31.0444C16.8682 31.1042 16.8089 31.175 16.7604 31.2539C16.6705 31.3137 16.5905 31.3886 16.5243 31.4745L16.4452 31.5435C16.3157 31.6232 16.2041 31.7291 16.1191 31.8538L16.04 31.9527C15.9995 31.9785 15.9659 32.0125 15.9412 32.0534V32.1124C15.8859 32.2102 15.8196 32.301 15.7436 32.3828C15.6398 32.4637 15.5311 32.5366 15.4174 32.6024C15.3473 32.6355 15.29 32.6864 15.2494 32.7513V32.8211C15.2099 32.8979 15.1635 32.9727 15.1101 33.0406C15.0429 33.0697 14.9836 33.1185 14.9421 33.1815V33.2404C14.8986 33.3172 14.8452 33.3881 14.784 33.45C14.7178 33.4859 14.6604 33.5378 14.616 33.6006C14.4974 33.7794 14.448 33.8193 14.4292 33.8293C14.3472 33.8603 14.28 33.9211 14.2404 33.999C14.194 34.0688 14.1545 34.1417 14.1219 34.2196C14.0418 34.2875 13.9786 34.3723 13.9351 34.4693C13.8461 34.549 13.7562 34.639 13.6772 34.6977C13.6228 34.7317 13.5783 34.7796 13.5487 34.8386C13.4914 34.9383 13.4459 35.046 13.4103 35.157L13.3224 35.2267C13.184 35.3057 13.0605 35.4064 12.9557 35.5263C12.8124 35.6281 12.7077 35.7759 12.6603 35.9456C12.4409 36.0903 12.264 36.2899 12.1454 36.5245C12.1118 36.5824 12.0683 36.6333 12.0169 36.6751L11.8489 36.8539C11.7392 36.9568 11.6364 37.0665 11.5436 37.1834L11.4734 37.2542C11.4536 37.2811 11.4368 37.311 11.425 37.3439L11.3548 37.4029C11.2491 37.4697 11.1581 37.5586 11.089 37.6625C11.0178 37.7972 10.9328 37.9209 10.831 38.0318C10.7391 38.1086 10.6561 38.1956 10.584 38.2923L10.4763 38.4221C10.4436 38.4431 10.418 38.469 10.3972 38.5019C10.3231 38.6088 10.2341 38.7036 10.1294 38.7804L10.2687 39.1998C10.3369 39.7388 10.3873 40.3575 10.4268 41.0164L10.5741 41.5255L10.6532 41.4657C10.7243 41.4167 10.7787 41.3469 10.8113 41.266L10.8814 41.1861L10.9892 41.1174H11.0494C11.1334 41.1182 11.2164 41.0934 11.2856 41.0465L11.3647 40.9865C11.3874 40.9824 11.4111 40.9824 11.4339 40.9865C11.5841 40.9846 11.7254 40.9156 11.8193 40.7968H11.8884C11.9408 40.7729 11.9883 40.74 12.0268 40.6969H12.1059H12.2057C12.3193 40.695 12.43 40.657 12.5209 40.5883H12.5713H12.6998C12.7917 40.706 12.9142 40.7958 13.0546 40.8467L13.2334 40.9175C13.3046 41.0344 13.4113 41.1263 13.5388 41.1761C13.608 41.2391 13.6801 41.2949 13.7562 41.3458L14.023 41.5365C14.3482 41.7423 14.6427 41.9907 14.9026 42.2743C15.2959 42.6724 15.5044 43.2205 15.4757 43.7824C15.4757 44.2907 15.368 44.7807 15.3077 45.3089C15.2188 46.0574 15.1308 46.8361 15.0913 47.6157C15.0913 48.1946 15.0212 48.7826 14.9816 49.3625C14.8838 50.9398 14.784 52.5668 14.8047 54.1929C14.8047 56.1894 14.9322 58.1859 15.031 60.0725C15.1101 61.5009 15.1892 62.9773 15.2287 64.4246V64.5046C15.2287 65.6235 15.289 66.7704 15.3077 67.9095V68.8278C15.3028 68.8768 15.3028 68.9267 15.3077 68.9765V69.206V70.2043V70.3341V70.4049V70.7233C15.3156 70.7933 15.3156 70.8642 15.3077 70.9331V71.0129C15.3058 71.0527 15.3058 71.0928 15.3077 71.1327C15.2484 71.1836 15.2099 71.2545 15.199 71.3323C15.1921 71.3622 15.1921 71.3932 15.199 71.4223C15.1437 71.463 15.0992 71.519 15.0706 71.5818H15.5854C16.7525 71.4592 17.9068 71.2294 19.0344 70.893C20.2568 70.7055 21.5 70.6794 22.7293 70.8143L23.0554 70.5437C22.9973 70.4739 22.9221 70.4189 22.8381 70.3839C22.8034 70.2982 22.7837 70.2072 22.7797 70.1156C22.7621 69.9758 22.676 69.856 22.5514 69.7951C22.5061 69.7862 22.4597 69.7862 22.4141 69.7951V69.7361C22.4013 69.6483 22.3677 69.5664 22.3144 69.4956C22.3114 69.4357 22.3114 69.3757 22.3144 69.317V69.1761V69.0465C22.3093 69.0234 22.3093 68.9994 22.3144 68.9765V68.7968V68.6371V68.4973V68.3476V68.2888C22.3104 68.2479 22.3104 68.208 22.3144 68.1679C22.3312 68.076 22.3312 67.9812 22.3144 67.8885V67.5192V67.2496V67.1497V67.0101V66.7206V66.461V66.3721C22.3093 66.3012 22.3093 66.2314 22.3144 66.1625V65.8821C22.3093 65.7932 22.3093 65.7035 22.3144 65.6135C22.3834 62.6977 22.5613 59.6243 22.8381 56.6296C22.8381 56.3901 22.8874 56.1404 22.9171 55.8999C22.9666 55.331 23.0258 54.7419 23.0554 54.153C23.2136 52.3273 23.6672 50.5394 24.3994 48.8634C25.3058 46.4927 26.8415 44.4203 28.8376 42.8741C31.1728 40.9795 33.9805 39.7746 36.9511 39.3894C37.7101 39.2776 38.476 39.2146 39.2429 39.1998C40.1786 39.1688 41.1085 39.3665 41.9506 39.7787C43.1344 40.4165 44.2442 41.1823 45.2611 42.0647C46.9618 43.5828 48.4394 45.3367 49.649 47.2763C50.2301 48.2325 50.6539 49.2777 50.904 50.3697L51.0335 50.799C51.0818 50.9797 51.1411 51.1683 51.2015 51.349C51.2597 51.5276 51.32 51.7573 51.3784 51.9869C51.4376 52.2164 51.4277 52.1964 51.4485 52.2864C51.4672 52.3761 51.4485 52.4771 51.5069 52.5458C51.5671 52.6158 51.5562 52.8752 51.576 53.0161V53.2655C51.576 53.4043 51.576 53.565 51.6352 53.6938V53.8945C51.6352 54.134 51.6847 54.3836 51.6955 54.5633C51.7045 54.7419 51.744 55.1212 51.744 55.231V55.6103V55.9497V56.2692V56.7783V56.9579V57.4471V57.6378V58.047V58.6649V58.8855C51.7322 58.9684 51.7322 59.0522 51.744 59.1351C51.7391 59.244 51.7391 59.3536 51.744 59.4646C51.749 59.5233 51.749 59.5842 51.744 59.6432V59.773V59.9826V60.5315C51.7351 60.5716 51.7351 60.6126 51.744 60.6514V60.882C51.74 60.918 51.74 60.9549 51.744 60.9908C51.7351 61.0406 51.7351 61.0915 51.744 61.1405C51.744 61.44 51.8032 61.5697 51.8141 61.6596C51.8093 61.6995 51.8093 61.7404 51.8141 61.7794V61.9392C51.8093 62.016 51.8093 62.0919 51.8141 62.1697C51.8093 62.1986 51.8093 62.2285 51.8141 62.2586V62.3484C51.7984 62.4082 51.7984 62.469 51.8141 62.528V62.7677C51.8093 62.7947 51.8093 62.8216 51.8141 62.8475C51.7845 62.9593 51.7845 63.0761 51.8141 63.1869C51.8191 63.2467 51.8191 63.3067 51.8141 63.3665V63.4974V63.5772V63.6561C51.7834 63.7439 51.7834 63.8377 51.8141 63.9255V64.1162V64.1951C51.8141 64.225 51.8725 64.4747 51.8824 64.5355V64.5854V64.8348C51.8586 64.9089 51.8586 64.9897 51.8824 65.0635V65.1643C51.8773 65.2003 51.8773 65.2372 51.8824 65.2731V65.4727C51.8725 65.5257 51.8725 65.5807 51.8824 65.6324C51.8824 65.6924 51.8824 65.7523 51.9317 65.8821C51.9277 65.909 51.9277 65.936 51.9317 65.9618C51.9269 65.9888 51.9269 66.0157 51.9317 66.0429C51.9357 66.0687 51.9357 66.0957 51.9317 66.1226C51.9376 66.1447 51.9376 66.1684 51.9317 66.1916C51.9269 66.2314 51.9269 66.2724 51.9317 66.3112C51.9269 66.3483 51.9269 66.3852 51.9317 66.4211C51.9298 66.452 51.9298 66.4809 51.9317 66.511V66.5719V66.7106C51.9277 66.7704 51.9277 66.8313 51.9317 66.8903C51.912 66.9652 51.912 67.0449 51.9317 67.1209C52.001 67.4293 52.0306 67.5801 52.0405 67.6488C52.0266 67.7078 52.0266 67.7697 52.0405 67.8296C52.0405 68.0082 52.0898 68.0981 52.1008 68.159C52.1106 68.218 52.1008 68.208 52.1008 68.239C52.0978 68.2888 52.0978 68.3376 52.1008 68.3877C52.0938 68.4485 52.0938 68.5073 52.1008 68.5682V68.778C52.0898 68.8327 52.0898 68.8906 52.1008 68.9477V69.0773V69.1462V69.2561V69.3269V69.4756V69.5556C52.0928 69.6423 52.0928 69.7291 52.1008 69.8161C52.0949 69.878 52.0949 69.9419 52.1008 70.0047V70.1156C52.0949 70.2632 52.1117 70.41 52.1501 70.5536C52.1354 70.6465 52.1354 70.7414 52.1501 70.8332V70.9929V71.1037C52.1432 71.1796 52.1432 71.2564 52.1501 71.3323C52.1413 71.4021 52.1413 71.4732 52.1501 71.5419C52.1461 71.6057 52.1461 71.6687 52.1501 71.7326C52.153 71.7655 52.153 71.7986 52.1501 71.8314V72.1119C52.1432 72.1778 52.1432 72.2436 52.1501 72.3115H52.5642C55.5784 72.3115 60.3031 72.67 62.6344 73.7181H63.089C63.073 73.6671 63.0533 73.6173 63.0296 73.5693C63.0218 73.4934 63.0058 73.4196 62.9813 73.3498C62.9821 73.3197 62.9821 73.2889 62.9813 73.2588V73.15C62.989 73.1101 62.989 73.0692 62.9813 73.0304C62.9693 72.9304 62.9456 72.8337 62.9111 72.7397C62.9061 72.7168 62.9061 72.6939 62.9111 72.67V72.5711V72.3306V72.152C62.917 72.1148 62.917 72.0771 62.9111 72.041C62.9071 72.0251 62.9071 72.0081 62.9111 71.9912C62.917 71.9551 62.917 71.9182 62.9111 71.8813V71.6927C62.916 71.6687 62.916 71.6458 62.9111 71.6219C62.917 71.5629 62.917 71.502 62.9111 71.443C62.9179 71.4061 62.9179 71.3682 62.9111 71.3323V71.1936C62.9258 71.1446 62.9258 71.0918 62.9111 71.0428V70.9439C62.908 70.876 62.908 70.8103 62.9111 70.7435V70.6436C62.9061 70.6077 62.9061 70.5706 62.9111 70.5347C62.916 70.4919 62.916 70.448 62.9111 70.4049C62.9042 70.3551 62.9042 70.3042 62.9111 70.2543C62.9149 70.1843 62.9149 70.1156 62.9111 70.0445C62.9032 69.9648 62.9032 69.8848 62.9111 69.805C62.917 69.7792 62.917 69.7512 62.9111 69.7253V69.6752C62.8973 69.5634 62.8973 69.4497 62.9111 69.3358V69.2461V68.9566V68.8278C62.9071 68.7739 62.9071 68.72 62.9111 68.667V68.3686C62.916 68.3047 62.916 68.2419 62.9111 68.1779C62.9071 68.1051 62.9071 68.0321 62.9111 67.9583C62.9111 67.8086 62.9111 67.6289 62.8418 67.4193C62.832 67.2965 62.832 67.1728 62.8418 67.05C62.8418 66.8712 62.8133 66.6807 62.753 66.4809C62.7648 66.3292 62.7648 66.1746 62.753 66.0219C62.753 65.8821 62.753 65.7124 62.7034 65.5737C62.7034 65.2133 62.6146 64.8938 62.5661 64.5754C62.3231 63.4094 62.2736 62.2126 62.417 61.0307C62.496 60.4887 62.496 59.9367 62.417 59.3937C62.3674 58.9703 62.3674 58.5412 62.417 58.1159C62.4871 57.3154 62.4871 56.5108 62.417 55.7102C62.3586 55.0204 62.3586 54.3247 62.417 53.634C62.4277 53.3393 62.401 53.0441 62.3378 52.7556C62.2933 52.5757 62.2677 52.3922 62.2589 52.2064C62.2589 51.0786 62.1698 49.9416 62.0909 48.8324C61.9624 47.422 61.913 46.0055 61.9435 44.59C61.9435 43.4721 62.1115 42.3252 62.2192 41.2162V40.9466C62.2192 40.3877 62.6738 39.9484 63.5632 39.6389C63.9784 39.4791 64.4231 39.3404 64.848 39.2106L64.9765 39.1607C65.1109 39.1158 65.2501 39.0918 65.3914 39.091C65.4834 39.0829 65.5744 39.1079 65.6495 39.1607C66.0616 39.4452 66.4933 39.6989 66.9431 39.9195L67.1506 40.0283L67.4371 40.1779C67.4599 40.1859 67.4837 40.1859 67.5074 40.1779C67.5616 40.198 67.612 40.2279 67.6546 40.2678C67.7119 40.3066 67.7701 40.3397 67.8335 40.3686H67.9125L66.9133 40.3177Z" fill="#FFE600"/>
<path d="M79.4245 68.3478H80.2645L81.6274 70.504L83.002 68.3478H83.842V72.8607H83.0514V69.5955L81.6274 71.7417L80.2151 69.6165V72.8607H79.4442L79.4245 68.3478ZM76.3599 69.0864H74.938V68.3478H78.5836V69.0864H77.1615V72.8607H76.3599V69.0864ZM69.0381 74.9161C69.1093 74.7664 69.1527 74.6037 69.1666 74.438C69.2229 74.2742 69.2535 74.1016 69.2556 73.9278C69.3316 73.8061 69.3663 73.6623 69.3543 73.5195V73.2391C69.3751 73.1273 69.3751 73.0125 69.3543 72.9005C69.3652 72.7758 69.385 72.6521 69.4138 72.5304V72.121C69.3978 72.0122 69.3978 71.9015 69.4138 71.7916V71.5322V71.3224V70.973C69.4306 70.8173 69.4306 70.6597 69.4138 70.504C69.3978 70.3712 69.3978 70.2384 69.4138 70.1056V69.8252C69.3999 69.7073 69.381 69.5915 69.3543 69.4758V68.9967C69.4039 68.9967 69.3543 68.7669 69.3543 68.6581C69.3426 68.5315 69.3426 68.4046 69.3543 68.2788C69.3543 68.0582 69.3543 68.0184 69.2655 67.669C69.2773 67.5532 69.2773 67.4363 69.2655 67.3207C69.2655 67.13 69.2655 67.071 69.2061 66.8504C69.1469 66.6309 69.2061 66.601 69.2061 66.521C69.2061 66.4412 69.1468 66.1417 69.137 66.0019C69.1271 65.8632 69.0876 65.6636 69.0778 65.5228C69.0727 65.3482 69.05 65.1734 69.0085 65.0037C69.0322 64.8989 69.0322 64.7901 69.0085 64.6842C68.9975 64.5207 68.9789 64.3569 68.9482 64.1951C68.9482 64.0154 68.9482 63.8767 68.89 63.6561V63.3167C68.885 63.133 68.8682 62.9504 68.8405 62.7677V62.4483V61.9602V61.5699V61.0608C68.8466 60.9409 68.8466 60.8213 68.8405 60.7015V60.2621V59.4137V59.314C68.8277 59.1303 68.801 58.9455 68.7615 58.7648C68.7615 58.6761 68.8405 58.9945 68.8108 58.8248C68.7615 58.4455 68.8602 58.8248 68.8108 58.6551C68.8108 58.7448 68.7407 58.1161 68.8108 58.2758C68.8108 58.076 68.7615 57.8376 68.8108 58.0962C68.722 57.557 68.6922 57.3275 68.8108 57.7178C68.722 57.1788 68.8108 57.4972 68.8108 57.4373C68.8108 57.3784 68.7021 56.7195 68.8108 56.9482C68.7121 56.4092 68.7407 56.5189 68.8108 56.6586C68.6922 55.9998 68.8108 56.4391 68.6823 55.7304C68.8207 56.3004 68.7407 55.8102 68.6823 55.6105C68.7802 55.9898 68.6823 55.3609 68.7319 55.6105V55.4109C68.6527 54.9417 68.6132 54.4127 68.7319 54.8429C68.6746 54.5754 68.638 54.3058 68.6231 54.0334C68.7012 54.3527 68.6231 53.8446 68.6231 53.714C68.7119 54.0334 68.6231 53.4244 68.722 53.9235C68.5332 52.9253 68.6231 53.2946 68.6527 53.3546C68.5836 52.9652 68.6527 53.2259 68.5836 52.8356V52.7456C68.5045 52.2764 68.5045 52.2166 68.5332 52.3074C68.5045 52.1757 68.4847 52.0418 68.4749 51.9071C68.4837 51.8042 68.4837 51.7005 68.4749 51.5987V51.1785V50.789V50.4598V50.1512V49.8608V49.6521C68.4255 49.2819 68.4749 49.2219 68.4749 49.2919V49.1322C68.4749 48.9724 68.4255 48.7828 68.4749 48.9035V48.7228V48.573V48.3944C68.4501 48.2716 68.4333 48.1488 68.4255 48.0251C68.3661 47.8344 68.3167 47.5849 68.4255 47.8045C68.297 47.2655 68.3759 47.5658 68.3365 47.4061V47.3353C68.3346 47.2105 68.3188 47.0867 68.2861 46.966C68.2861 46.8572 68.3463 47.0667 68.2861 46.8461C68.298 46.7163 68.298 46.5867 68.2861 46.4569C68.2861 46.2072 68.218 46.0076 68.2861 46.2473V46.1175C68.29 45.9788 68.2703 45.84 68.2279 45.7083C68.2772 45.6483 68.2279 45.3689 68.2279 45.2491V45.1103C68.2279 45.1292 68.2772 45.1691 68.2279 44.9905C68.2772 44.9905 68.2279 44.6901 68.3562 44.9905C68.3562 44.8997 68.3069 44.6002 68.3562 44.5603C68.4058 44.5204 68.3562 44.5603 68.3562 44.2708C68.465 44.3615 68.4946 44.3507 68.4354 43.9214C68.554 44.181 68.5332 43.9214 68.5439 43.7716C68.554 43.6219 68.5439 43.6219 68.6034 43.7716V43.5222V43.2835C68.6034 43.1928 68.5242 42.8733 68.6034 42.8833C68.6823 42.8932 68.554 42.7335 68.6034 42.7335C68.5767 42.6236 68.5402 42.5169 68.4935 42.4151C68.5639 42.5439 68.4935 42.4151 68.4354 42.2055C68.4047 42.1167 68.3682 42.0297 68.3266 41.9448L68.1685 41.6663C68.121 41.5745 68.0618 41.4907 67.9906 41.4169C67.8919 41.2561 67.8127 41.1365 67.7831 41.1672L67.6447 41.0066L67.4965 40.817C67.4293 40.7561 67.3562 40.7031 67.2791 40.6573C67.1882 40.5754 67.0924 40.4986 66.9925 40.4275C66.8938 40.3478 66.8245 40.3289 66.7258 40.2578C66.6388 40.1811 66.5389 40.1242 66.4292 40.0882L66.1327 39.9284C65.6317 39.69 65.1495 39.4134 64.69 39.1001C64.3746 38.9113 63.9874 38.8884 63.6522 39.0411C63.1681 39.1898 62.6639 39.3396 62.2095 39.5292C61.3794 39.8586 60.6778 40.3179 60.5887 41.1863C60.4701 42.4041 60.3418 43.6318 60.2922 44.8496C60.1836 47.4061 60.5986 49.9416 60.6085 52.486C60.6815 52.9452 60.7311 53.4085 60.7567 53.8737C60.6282 55.3708 60.9741 56.8682 60.8061 58.3456C60.6876 59.3439 61.0335 60.2931 60.8655 61.2305C60.7103 62.4442 60.7508 63.6741 60.9839 64.8749C60.9839 65.1933 61.0818 65.5228 61.1215 65.8732C61.1215 66.0329 61.1215 66.1916 61.1719 66.3225C61.1925 66.4642 61.1925 66.6088 61.1719 66.7507C61.2212 66.9913 61.2509 67.1798 61.2706 67.3495C61.2618 67.4893 61.2618 67.6291 61.2706 67.7689C61.2706 67.9685 61.3201 68.1382 61.3399 68.288C61.3477 68.4386 61.3645 68.5883 61.3892 68.7381C61.3892 68.9668 61.3892 69.0276 61.4485 69.2062C61.5079 69.3859 61.4485 69.4867 61.498 69.6065C61.4881 69.7452 61.4881 69.885 61.498 70.0259C61.485 70.1546 61.485 70.2842 61.498 70.4141C61.486 70.5439 61.486 70.6737 61.498 70.8033C61.4842 70.9002 61.4842 70.997 61.498 71.0929C61.498 71.0929 61.5572 71.3525 61.5759 71.4522C61.5612 71.5451 61.5612 71.6399 61.5759 71.7328C61.6018 71.8177 61.6215 71.9044 61.6362 71.9912C61.6362 71.9214 61.6362 71.9912 61.6956 72.3007C61.6906 72.3707 61.6906 72.4415 61.6956 72.5105C61.6956 72.5105 61.7439 72.7308 61.7836 72.9695V73.1901C61.8141 73.2741 61.833 73.3598 61.8439 73.4487C61.8439 73.4487 61.8932 73.6493 61.913 73.6782C61.9327 73.7083 61.9623 73.8279 62.002 74.0477C62.0325 74.1226 62.0602 74.1994 62.081 74.2772C62.0879 74.3761 62.1175 74.4728 62.17 74.5576C62.17 74.6665 62.2381 74.7963 62.2687 74.7674C62.2687 74.9161 62.3279 75.0659 62.3567 75.1656C62.3874 75.2663 62.4269 75.2854 62.4663 75.1656C62.4663 75.4152 62.5455 75.3353 62.6037 75.495C62.6037 75.495 62.7135 75.495 62.7826 75.7145C62.8508 75.9352 62.921 75.7145 63.01 75.7145C63.0978 75.7145 63.1879 75.8842 63.2866 75.7945C63.3855 75.7046 63.513 75.8643 63.6325 75.7945C63.7511 75.9044 63.8599 75.7945 63.9783 75.8444C64.097 75.8953 64.2058 75.8444 64.3143 75.7845C64.433 75.9752 64.5516 75.9941 64.6602 75.9443C64.769 75.8953 64.8975 76.114 65.0061 76.0041C65.1149 76.1339 65.5794 76.0041 65.6879 76.2336C65.8076 76.2158 65.9231 76.1827 66.034 76.1339C66.1525 76.2538 66.2612 76.1339 66.37 76.1937C66.4983 75.9642 66.9717 76.1937 67.0914 76.3944C67.1605 76.2247 67.2188 76.114 67.2791 76.2137C67.3383 76.3136 67.5658 76.0841 67.6151 76.1449C67.6645 76.2037 67.7239 76.3435 67.7732 76.2737C67.882 75.7345 67.9708 76.055 68.0698 75.9642C68.1676 75.8743 68.2378 75.8842 68.3167 75.9642C68.3661 75.5648 68.3959 75.8055 68.4354 75.5849C68.4354 75.5849 68.5045 75.4761 68.5332 75.5849C68.5639 75.6946 68.5935 75.6747 68.633 75.2954C68.633 75.3452 68.6922 75.1755 68.7012 75.4551C68.7012 75.3153 68.7516 75.2356 68.7615 75.1066C68.7714 74.977 69.0274 74.8572 69.0381 74.9161ZM8.65698 65.972C8.72615 63.6461 8.5285 61.3204 8.43957 58.9845C8.38029 57.5171 8.15298 56.0698 8.16287 54.6023C8.16287 52.6759 8.16287 50.7591 8.29133 48.8326C8.38029 47.6458 8.51863 46.4569 8.61746 45.269V44.9107V44.72C8.61746 44.6511 8.61746 44.5802 8.68663 44.5003C8.75581 44.4205 8.68663 44.3007 8.68663 44.181C8.68663 44.0612 8.63722 43.9922 8.62733 43.8815C8.67378 43.7568 8.70146 43.6248 8.70541 43.4931C8.77557 43.3924 8.75581 43.3325 8.80522 43.2526C8.85463 43.1728 8.80522 43.1327 8.80522 43.043C8.60757 43.043 8.66589 42.8733 8.68663 42.7445C8.70541 42.6147 8.68663 42.504 8.68663 42.3941C8.68663 42.2853 8.79533 42.1447 8.68663 42.0946C8.80522 41.9349 8.73605 41.8662 8.80522 41.7353C8.87439 41.6055 8.80522 41.5855 9.06216 41.4069C9.06216 41.4069 8.96333 41.4069 9.18074 41.2362C9.11157 41.2362 9.18074 41.1672 9.4377 41.0376H9.4861C9.56813 41.0236 9.65213 41.0236 9.73317 41.0376C9.83693 40.9477 9.95354 40.8758 10.08 40.8278C10.1591 40.8968 10.2184 40.8278 10.2382 40.7669C10.2579 40.7082 10.337 40.7171 10.4348 40.6772C10.5346 40.6373 10.6335 40.4585 10.5742 40.5673C10.6532 40.4585 10.7422 40.5673 10.8015 40.4275C10.8607 40.2888 10.9289 40.5075 11.0485 40.3688L11.2363 40.2678C11.4231 40.1692 11.4438 40.3289 11.513 40.2678C11.5822 40.2091 11.6415 40.2091 11.6415 40.2678C11.6415 40.3289 11.8193 40.5574 11.9676 40.5873C12.1158 40.6182 12.2245 40.6683 12.2838 40.737C12.3214 40.8369 12.4014 40.9148 12.5012 40.9466L12.7483 41.1464L13.0151 41.3269C13.3817 41.5497 13.7148 41.8261 14.0033 42.1447C14.4648 42.6317 14.7079 43.2884 14.6743 43.9613C14.5666 45.2291 14.3591 46.4968 14.2899 47.7754C14.1713 49.9607 13.9836 52.1377 14.0033 54.3228C14.0033 57.7366 14.3295 61.1405 14.4382 64.5546C14.4382 65.7124 14.5073 66.8803 14.5172 68.0383V68.208C14.5301 68.3179 14.5301 68.4286 14.5172 68.5374C14.5271 68.6274 14.5271 68.7171 14.5172 68.807C14.5113 68.9078 14.5113 69.0066 14.5172 69.1074V69.3361V69.6564V70.0149V70.3243V70.4849V70.6336C14.5251 70.7535 14.5251 70.8733 14.5172 70.9932V71.2925C14.5172 71.3533 14.5172 71.3724 14.4678 71.592C14.4678 71.592 14.4085 71.7417 14.369 71.7118C14.3295 71.6819 14.3196 72.0113 14.2998 71.9314C14.284 71.9793 14.2474 72.0151 14.201 72.0313C14.1941 72.146 14.1565 72.2568 14.0923 72.3516C14.0923 72.4016 14.0132 72.3516 13.9638 72.3516C13.9144 72.3516 13.8057 72.3516 13.6861 72.5404C13.5685 72.7309 13.4391 72.6012 13.3017 72.66C13.1633 72.72 13.1525 72.5703 13.0843 72.66C12.9953 72.6821 12.9163 72.7311 12.857 72.7998C12.7236 72.7179 12.5625 72.695 12.4113 72.74C12.2739 72.5802 11.8589 72.8607 11.8095 72.4814C11.7205 72.6511 11.6217 72.3707 11.513 72.3707C11.4043 72.3707 11.3055 72.2807 11.1967 72.2608C11.088 72.2408 10.9685 72.1021 10.8499 72.201C10.7323 72.3007 10.7323 72.0512 10.673 72.0622C10.6137 72.0711 10.5544 72.0622 10.4951 72.0622C10.4348 72.0622 10.3666 71.9513 10.3073 71.9712C10.248 71.9912 10.1878 71.9712 10.1295 71.8815C10.0751 71.9155 10.0198 71.9454 9.96146 71.9712C9.90117 71.8925 9.84287 71.8815 9.79346 71.7118C9.68474 71.9114 9.59581 71.6219 9.52663 71.6528C9.45746 71.6819 9.37839 71.5322 9.32898 71.7019C9.27661 71.5971 9.2341 71.4861 9.19952 71.3724C9.19952 71.3724 9.13133 71.3724 9.11157 71.2426V71.053C9.11157 70.8644 9.11157 70.8334 9.06216 70.8143C9.01274 70.7933 9.06216 70.8143 9.06216 70.7535V70.5649V70.2753C9.0493 70.2015 9.0493 70.1277 9.06216 70.0547C9.03351 69.9709 9.01373 69.884 9.00287 69.7951C8.99496 69.6825 8.99496 69.5696 9.00287 69.4557V69.3062C8.98903 69.1774 8.98903 69.0465 9.00287 68.9167C8.99101 68.848 8.99101 68.7769 9.00287 68.7071V68.3187V66.8216C8.66589 66.5609 8.65698 66.2715 8.65698 65.972ZM51.1807 57.4683V58.1061V58.716V59.1542C51.1698 59.314 51.1698 59.4737 51.1807 59.6343C51.1748 59.7541 51.1748 59.874 51.1807 59.9928V60.4819V60.5916V60.9409C51.1807 61.2116 51.2391 61.4901 51.1807 61.0608V61.1217C51.2301 61.3713 51.2567 61.6248 51.2599 61.8804V61.7994V62.2096V62.4992C51.2775 62.6339 51.2775 62.7718 51.2599 62.9075V63.147C51.1996 62.8876 51.2599 63.0174 51.2599 63.4266C51.2599 63.4266 51.0919 62.7179 51.1807 63.147C51.1956 63.2889 51.2183 63.4276 51.25 63.5664C51.25 63.7161 51.25 63.686 51.25 63.5664V63.8858C51.2549 63.9456 51.2549 64.0055 51.25 64.0655C51.25 64.1452 51.25 63.9965 51.25 64.0655C51.25 63.9855 51.25 64.1164 51.1511 63.8457C51.1511 63.9357 51.2103 64.1662 51.1996 64.1054C51.2698 64.4957 51.2895 64.6045 51.2698 64.5145C51.2698 64.6942 51.2698 64.7542 51.3191 64.8539C51.3676 64.9549 51.3191 65.0837 51.3191 65.0347C51.3191 65.1335 51.3191 64.9838 51.3191 65.0347C51.3191 65.2135 51.3783 65.3032 51.3191 65.1834C51.3191 65.2932 51.3882 65.5338 51.3676 65.433C51.418 65.6725 51.3676 65.433 51.3191 65.2633C51.3191 65.4231 51.3981 65.6426 51.3882 65.6237C51.3882 65.7835 51.4466 65.9621 51.3882 65.6825V65.6237C51.3882 65.5628 51.3882 65.7525 51.4466 65.9421C51.5068 66.1318 51.497 66.1916 51.4466 65.993V66.0919C51.497 66.3314 51.4466 66.0919 51.497 66.3723C51.497 66.5409 51.5562 66.6907 51.497 66.5011V66.6508C51.497 66.8305 51.497 66.7815 51.5661 67.0102C51.5167 66.8006 51.5661 66.9404 51.5661 67.14V67.3894V67.4503C51.5661 67.5591 51.5661 67.2806 51.5661 67.4503C51.6452 67.8697 51.5661 67.4503 51.5068 67.2496C51.5524 67.4374 51.589 67.627 51.6146 67.8198C51.6383 67.9006 51.6551 67.9844 51.665 68.0693V67.9895C51.665 68.1382 51.665 68.208 51.7143 68.2479C51.7639 68.288 51.7143 68.2479 51.6354 67.9284C51.6354 68.1282 51.6938 68.208 51.7045 68.2788C51.7143 68.3478 51.7045 68.4176 51.7045 68.3588C51.7045 68.5075 51.7045 68.5175 51.7639 68.6982C51.8231 68.8768 51.7639 68.7871 51.7639 69.0276V69.0964V69.317V69.5058C51.7639 69.4468 51.833 69.885 51.7639 69.7153C51.7639 69.8252 51.7639 69.7153 51.8132 70.0658V70.2145V70.3742C51.8172 70.4989 51.834 70.6228 51.8615 70.7435C51.8517 70.8334 51.8517 70.9242 51.8615 71.0131V71.2925V71.4832C51.8548 71.5591 51.8548 71.6359 51.8615 71.7118C51.8567 71.8115 51.8567 71.9114 51.8615 72.0113V72.3707C51.8567 72.4445 51.8567 72.5172 51.8615 72.5902C51.8615 72.67 51.8615 72.8108 51.8132 72.8108C51.7845 72.9215 51.7658 73.0344 51.754 73.1502C51.6847 73.1502 51.6452 73.3189 51.5759 73.3997C51.5069 73.4796 51.4466 73.5785 51.3487 73.5785C51.25 73.5785 51.1996 73.8279 51.0919 73.798C51.0127 73.9389 50.9039 73.9478 50.7954 74.0585C50.6866 74.1673 50.5978 74.2683 50.4495 74.2072C50.3012 74.1485 50.2716 74.3871 50.1234 74.2072C50.0324 74.2702 49.9495 74.344 49.8762 74.427C49.7279 74.3271 49.6589 74.4779 49.5501 74.427C49.4415 74.3769 49.3525 74.427 49.234 74.3769C49.1154 74.3271 49.0362 74.3769 48.9079 74.3769C48.7794 74.1773 48.7002 74.2373 48.5916 74.2573C48.4818 74.2772 48.4028 74.2573 48.2951 74.0676C48.1863 73.878 48.0975 74.0676 47.9788 73.9677C47.8602 73.8678 47.801 73.8489 47.7119 73.878C47.6349 73.7331 47.5271 73.6065 47.3959 73.5085C47.3069 73.5995 47.218 73.5085 47.0994 73.4287C47.0194 73.3309 46.9223 73.2501 46.8127 73.1901C46.7634 73.279 46.6447 73.1192 46.5756 73.1192C46.5055 73.1192 46.378 73.0395 46.2583 72.9495C46.1407 72.8607 46.0815 72.7709 46.0023 72.7998C45.9036 72.67 45.7948 72.691 45.706 72.6112C45.617 72.5304 45.5172 72.5404 45.4095 72.3007C45.3205 72.3007 45.2612 72.3806 45.1722 71.9424C45.1722 72.0811 45.0439 71.8715 44.9943 71.9424C44.945 72.0113 44.8858 71.5521 44.8759 71.8624C44.862 71.7506 44.8431 71.641 44.8156 71.5322V71.3224C44.8156 71.4433 44.8156 71.3724 44.7671 71.1139V70.8334V70.7346V70.2942V70.2444V69.7452V69.4557C44.7671 69.346 44.7671 69.1572 44.7178 69.0864C44.6682 69.0166 44.7178 69.0066 44.7178 68.9078C44.7178 68.807 44.7178 68.7071 44.6682 68.6373C44.6575 68.5234 44.6375 68.4097 44.609 68.2979V68.0582C44.5823 67.9076 44.5666 67.7528 44.5596 67.5992V67.4395V67.2407V66.7507C44.5655 66.6519 44.5655 66.5509 44.5596 66.4521V66.3613V65.982C44.5655 65.9252 44.5655 65.8692 44.5596 65.8123C44.5596 65.5338 44.4903 65.3132 44.4706 65.0936C44.3026 63.6561 44.2631 62.2096 44.026 60.7712C43.9647 59.4037 43.9983 58.0321 44.1247 56.6686C44.1682 55.1933 44.029 53.718 43.7098 52.2764C43.5644 51.7175 43.3964 51.1685 43.2058 50.6295C43.1365 50.4407 43.0772 50.26 43.0079 50.0803C42.9389 49.9017 42.8698 49.6922 42.7996 49.5513C42.7314 49.4115 42.6522 49.182 42.5831 49.0322C42.5308 48.8615 42.4468 48.7028 42.3359 48.5641C42.2372 48.2137 42.1482 48.065 42.0495 48.0251C41.9506 47.9852 41.842 47.6957 41.7431 47.7447C41.6146 47.4861 41.4959 47.2655 41.3775 47.2254C41.2588 47.1855 41.1205 46.8173 41.002 46.8661C40.8626 46.6077 40.7351 46.5277 40.5868 46.2573C40.4781 46.1873 40.3399 46.0685 40.2015 46.1175C40.0631 46.1673 39.8743 45.8979 39.7074 45.9488C39.5196 45.7582 39.3516 45.8279 39.1738 45.878C38.9759 45.7183 38.7882 45.7681 38.5996 45.6383C38.309 45.7102 38.0116 45.7531 37.7111 45.7681C37.4215 45.784 37.137 45.853 36.8701 45.9677C36.5954 45.9327 36.3148 45.9737 36.0607 46.0876C35.8028 46.1644 35.5519 46.2622 35.3098 46.3769C34.3343 46.8232 33.4261 47.4042 32.6119 48.1048C31.8647 48.8286 31.2164 49.6521 30.6847 50.5495C29.8911 51.8481 29.3199 53.2717 28.9949 54.7631C28.6746 56.2174 28.4799 57.6957 28.4119 59.1841C28.2834 60.2621 28.2538 61.3404 28.2231 62.4084V62.9673V63.5963V63.7759V64.4248V64.5245V64.7941V64.9339V65.6925V65.9322C28.2231 66.1118 28.2231 65.8821 28.2231 65.9322V66.1417V66.3225V67.2496C28.2231 67.5303 28.2231 67.7988 28.1549 67.5093V67.9585C28.1735 68.0873 28.1735 68.219 28.1549 68.3478C28.1628 68.4676 28.1628 68.5873 28.1549 68.7071C28.149 68.7901 28.149 68.8738 28.1549 68.9568C28.1549 68.807 28.1549 68.7669 28.1549 68.9568V69.0864C28.142 69.1763 28.142 69.2671 28.1549 69.356V69.6455V69.7851V69.8451C28.2141 70.4141 28.1549 69.9459 28.1549 70.3152V70.6037C28.1549 70.6837 28.1549 70.514 28.0956 70.6037C28.0362 70.6945 28.0956 70.9043 28.0956 70.9441V70.9932C28.1103 71.1728 28.1103 71.3533 28.0956 71.5322C28.0551 71.6798 27.9948 71.8206 27.9178 71.9513C27.4404 72.7529 26.5292 73.1801 25.6151 73.0295L25.1901 72.9495C25.045 72.9635 24.8996 72.9116 24.7949 72.8098C24.7218 72.8098 24.6506 72.8388 24.5972 72.8897C24.538 72.7798 24.4687 72.7599 24.4095 72.6301C24.3501 72.5003 24.281 72.6301 24.2218 72.6301C24.1623 72.6301 24.1031 72.5404 24.034 72.4504C23.9252 72.6401 23.7967 72.3206 23.6879 72.3806C23.5794 72.4415 23.4607 72.3806 23.3519 72.2319C23.2532 72.142 23.1436 72.0652 23.026 72.0011C22.9271 72.0011 22.8183 71.7816 22.7196 71.7916C22.6207 71.8015 22.522 71.6819 22.4231 71.5521C22.3242 71.2426 22.2354 71.3633 22.1365 71.3224C22.0378 70.984 21.9586 71.2027 21.8698 71.1936C21.7807 71.0239 21.7018 70.9043 21.6127 70.9441C21.5239 70.984 21.5338 70.9442 21.4941 70.8733C21.4546 70.8033 21.4941 70.7933 21.425 70.6436C21.3943 70.5318 21.3716 70.4192 21.3559 70.3044C21.2866 70.3044 21.2076 70.3042 21.1383 70.3653C21.1383 70.2444 21.0692 70.2145 21.0396 70.2643C21.0396 69.8662 21.0396 70.1156 20.9605 69.8661C20.9605 69.9858 20.8913 70.0049 20.8617 69.6356C20.8617 69.4158 20.8617 69.3062 20.8617 69.6356V69.3062C20.8617 69.2461 20.8617 69.1464 20.8617 69.3062V69.0166V68.9267V68.5773C20.8617 68.6672 20.8617 68.5474 20.8617 68.5773V68.4087C20.8548 68.3348 20.8548 68.261 20.8617 68.1881V67.6491V67.3795V67.1499C20.8666 67.06 20.8666 66.9703 20.8617 66.8803V66.601V66.2915C20.8565 66.1986 20.8565 66.1059 20.8617 66.0119V65.7224C20.9407 62.7279 21.1285 59.6833 21.3954 56.6686C21.4743 55.85 21.5732 55.0215 21.6127 54.2031C21.7669 52.3324 22.2284 50.5005 22.9765 48.7828C23.9015 46.3252 25.4866 44.1749 27.5519 42.5748C29.9466 40.6293 32.8263 39.3924 35.873 39.0012C37.6221 38.7806 39.4306 38.5708 41.1095 39.4295C42.3231 40.0792 43.4597 40.8618 44.5002 41.7652C46.2287 43.3115 47.7327 45.0953 48.9671 47.0667C49.6332 48.1967 50.1164 49.4266 50.3999 50.7093C50.4583 50.8889 50.5087 51.0686 50.5679 51.2483C50.6274 51.4279 50.6965 51.6975 50.7559 51.9171C50.8151 52.1366 50.8546 52.3763 50.8842 52.4771C50.8842 52.7755 50.9732 53.0452 51.0029 53.2259C51.0325 53.4045 51.0621 53.694 51.0719 53.8137C51.082 53.9346 51.0719 54.3327 51.1412 54.5024C51.2103 54.6721 51.1412 55.0815 51.1906 55.1912V55.7003V56.2204V56.8981C51.1018 57.0678 51.1511 57.2186 51.1807 57.4683ZM37.5826 8.21516C37.4245 8.27504 37.2861 8.42477 37.1279 8.47568C36.97 8.5246 36.8415 8.64438 36.6932 8.70429C36.545 8.76417 36.4362 9.02372 36.2879 9.05365C36.1359 9.12352 35.9986 9.22235 35.8818 9.34313C35.7543 9.44296 35.6061 9.4739 35.5172 9.75242C35.3789 9.75242 35.2306 9.75242 35.122 9.95205C34.9717 10.0659 34.8413 10.2046 34.7365 10.3613C34.5882 10.3613 34.4599 10.561 34.3314 10.6907C34.2029 10.8205 34.0941 11.0601 33.945 11.0601C33.7978 11.0601 33.8274 11.2497 33.7581 11.2697C33.689 11.2897 33.6396 11.4394 33.5703 11.4993C33.5012 11.5592 33.3135 11.7089 33.185 11.8487C33.0565 11.9894 32.9874 12.0683 32.8588 12.0483C32.77 12.248 32.6514 12.2679 32.5821 12.5175C32.5149 12.6552 32.4132 12.773 32.2858 12.8569C32.1869 12.9467 32.098 13.1364 32.009 13.2362C31.9199 13.336 31.8114 13.4159 31.6927 13.4159C31.6335 13.6854 31.5247 13.6954 31.4348 13.8052C31.3538 13.9888 31.2589 14.1665 31.1482 14.3342C31.0306 14.3342 30.922 14.434 30.833 14.6736C30.7015 14.7555 30.5927 14.8683 30.5167 15.003C30.4485 15.1658 30.3439 15.3095 30.2103 15.4223C30.1293 15.5361 30.0098 15.6149 29.8735 15.6419C29.8735 15.7717 29.7756 15.8116 29.7359 15.9713C29.6551 16.0502 29.6055 16.157 29.5978 16.2708C29.489 16.3806 29.3506 16.3506 29.242 16.4504C29.2053 16.5583 29.1589 16.6621 29.1036 16.7599C29.0442 16.7599 29.0037 16.9096 28.9455 16.9296C28.8852 16.9496 28.7082 17.1093 28.6095 17.3389C28.5106 17.4517 28.389 17.5405 28.2538 17.5984C28.1903 17.6823 28.1381 17.7721 28.0956 17.8679C28.0522 17.9568 27.9988 18.0406 27.9365 18.1175C27.8189 18.2772 27.6805 18.2572 27.5818 18.4579C27.4818 18.6565 27.3445 18.6865 27.2348 18.8462C27.1271 19.0059 27.1271 19.0259 27.0679 19.0858C27.0085 19.1456 26.9482 19.2355 26.89 19.2854C26.7487 19.4072 26.634 19.5569 26.554 19.7246C26.4354 19.8144 26.297 19.8344 26.1783 19.9342C26.0796 20.1029 25.966 20.2636 25.8423 20.4134C25.7239 20.4932 25.6349 20.7428 25.5055 20.8127C25.3986 20.9494 25.2831 21.0792 25.1605 21.203C25.0319 21.203 24.9431 21.5015 24.8245 21.6012C24.706 21.7021 24.5874 21.791 24.4775 21.9106C24.3541 22.0644 24.2484 22.2322 24.1623 22.4098C24.034 22.4098 23.9252 22.5595 23.8362 22.8491C23.697 22.8491 23.5892 22.9498 23.4895 23.2084C23.3855 23.3452 23.274 23.4748 23.1543 23.5976C23.0101 23.7065 22.8916 23.8462 22.8085 24.007C22.6762 24.0709 22.5535 24.1506 22.4429 24.2465C22.3439 24.486 22.2354 24.6758 22.1069 24.6758C22.018 24.9353 21.8994 25.0651 21.7709 25.0751C21.6423 25.085 21.5525 25.3447 21.4349 25.4045C21.345 25.5591 21.2719 25.7239 21.2175 25.8936C21.1215 25.9863 21.0317 26.0873 20.9506 26.194C20.8133 26.2699 20.7135 26.3998 20.6739 26.5525C20.5553 26.5525 20.4664 26.6721 20.3676 26.782C20.2687 26.8919 20.16 27.0115 20.0513 27.1015C19.9426 27.1922 19.8231 27.2712 19.7055 27.3609C19.5869 27.4508 19.4485 27.5106 19.3289 27.6205C19.2519 27.7662 19.1402 27.8891 19.0028 27.9798C18.9247 28.2104 18.8062 28.2193 18.7073 28.3791C18.6085 28.5388 18.5393 28.5388 18.4702 28.6487C18.4198 28.7834 18.3417 28.9051 18.2429 29.008C18.144 29.008 18.0847 29.2275 18.0057 29.3075C17.9148 29.4083 17.8347 29.5192 17.7685 29.6369C17.6796 29.7267 17.5995 29.8465 17.5116 29.8864C17.4226 29.9265 17.3337 30.086 17.2447 30.2169C17.1558 30.3467 17.0965 30.3467 17.0175 30.4364C16.9354 30.5164 16.8672 30.6102 16.8188 30.716C16.7457 30.7949 16.6765 30.8776 16.6113 30.9655C16.5431 30.9655 16.4838 31.1243 16.4146 31.1941C16.3207 31.2841 16.2516 31.3978 16.217 31.5235C16.128 31.5235 16.0687 31.6534 15.9996 31.7531C15.9304 31.853 15.7426 31.9928 15.6043 32.0935C15.4659 32.1924 15.3572 32.372 15.2287 32.4628C15.1408 32.6406 15.0163 32.7973 14.8631 32.9221C14.7445 33.0209 14.6151 33.1087 14.4777 33.1815C14.3591 33.3703 14.2504 33.5798 14.112 33.6308C13.9737 33.6806 13.8847 33.989 13.7464 34.0501C13.6604 34.2067 13.5339 34.3386 13.3807 34.4294C13.3086 34.5221 13.2513 34.6271 13.2127 34.7378C13.1278 34.7898 13.0645 34.8715 13.0349 34.9684C12.9192 35.0882 12.7937 35.199 12.6583 35.2978C12.5961 35.4215 12.5467 35.5524 12.5111 35.686C12.4508 35.7571 12.3826 35.746 12.3233 35.8258C12.1721 35.8977 12.0447 36.0116 11.9567 36.1552C11.8776 36.1552 11.8292 36.2562 11.7798 36.3849C11.7304 36.5145 11.6701 36.5746 11.6019 36.5854C11.4468 36.6872 11.3232 36.834 11.2462 37.0048C11.1365 37.2044 11.009 37.2633 10.8894 37.4139C10.759 37.5338 10.6364 37.6636 10.5247 37.8023C10.416 38.0119 10.2777 38.0119 10.1591 38.1727C10.0623 38.3464 9.94466 38.511 9.81322 38.6618C9.68474 38.7405 9.57605 38.9404 9.44658 39.05C9.34381 39.1958 9.22029 39.3277 9.08192 39.4395C8.92874 39.5343 8.7993 39.665 8.70541 39.8188C8.58781 39.9594 8.45834 40.0682 8.34074 40.2091C8.23402 40.3696 8.11149 40.5205 7.97511 40.6581L7.59957 41.0465C7.16474 41.5157 6.72005 41.975 6.26546 42.434L5.81087 42.8833L5.3365 43.3525C5.20805 43.4861 5.07266 43.613 4.93133 43.7318C4.7673 43.9015 4.58546 44.0521 4.38781 44.181L3.93322 44.3615C3.78005 44.4265 3.61205 44.4475 3.44898 44.4205C3.22959 44.4394 3.01218 44.4695 2.79674 44.5102C2.74733 44.3217 2.65839 44.1619 2.34216 44.2419C2.21666 44.0881 2.0704 43.9543 1.90734 43.8416C1.6504 43.8416 1.35392 43.8416 1.35392 43.5122C1.22348 43.3603 1.0456 43.2577 0.849925 43.2227C0.849925 42.983 0.632514 42.9043 0.622631 42.6646C0.554442 42.5 0.471431 42.3432 0.375573 42.1945C0.266866 42.0448 0.305407 41.8452 0.207572 41.7253C0.255997 41.5507 0.206584 41.3641 0.0791016 41.2362C0.177925 41.0336 0.260938 40.824 0.32616 40.6072C0.390397 40.4375 0.492183 40.2839 0.622631 40.1592C0.831149 39.9874 1.0288 39.8037 1.21557 39.6092C1.38258 39.4772 1.5328 39.3226 1.66028 39.1499C1.96663 38.9113 2.06546 38.7707 2.27298 38.591C2.45679 38.4841 2.60503 38.3244 2.69792 38.1318C2.82639 37.972 3.09322 37.7934 3.23058 37.6326C3.38079 37.5079 3.49839 37.3512 3.57746 37.1745C3.81167 37.0406 4.01623 36.8609 4.18029 36.6444C4.2297 36.4946 4.52616 36.2961 4.61511 36.1452C4.75346 35.9526 4.9165 35.7778 5.09933 35.6272C5.17642 35.4236 5.30983 35.2458 5.48474 35.1171C5.60333 34.9574 5.79111 34.7677 5.77133 34.629C5.91957 34.4483 6.11722 34.2597 6.2457 34.09C6.37712 33.8963 6.52239 33.7126 6.6805 33.54C6.79911 33.3703 6.77933 33.2305 7.15487 33.0118C7.07581 32.8911 7.15487 32.7314 7.4217 32.5318L8.04429 31.9928C8.17077 31.8699 8.26269 31.7151 8.31111 31.5435C8.53839 31.3638 8.50874 31.244 8.89416 31.0344C8.78546 30.9447 9.1017 30.7349 9.30922 30.5652C9.51674 30.3955 9.58592 30.2457 9.56615 30.146C10.0504 29.8964 9.94071 29.7967 10.0702 29.6569C10.1986 29.5171 10.5742 29.2375 10.5939 29.078C10.8015 28.9391 10.7422 28.8782 10.8706 28.7685C11.2066 28.5988 11.1276 28.5488 11.2758 28.4399C11.4231 28.3292 11.5723 28.0496 11.6612 27.87C11.8747 27.6795 12.0694 27.4688 12.2443 27.2412C12.3431 27.1354 12.4498 27.0355 12.5605 26.9428C12.6564 26.82 12.7661 26.709 12.8866 26.6123C13.0191 26.4017 13.1712 26.205 13.3412 26.0235C13.4717 25.8557 13.5833 25.6749 13.6772 25.4842C13.8531 25.3086 14.0063 25.1109 14.1318 24.8954C14.2593 24.7925 14.3779 24.6788 14.4876 24.556C14.5864 24.4472 14.705 24.3365 14.8137 24.2266C14.9214 24.1167 15.209 23.8072 15.2584 23.6577C15.4096 23.5149 15.541 23.3541 15.6537 23.1785C15.8405 23.0118 16.0193 22.8361 16.1873 22.6495C16.3059 22.4827 16.4354 22.3219 16.5718 22.1703C16.7309 22.0006 16.9483 21.801 16.9582 21.6911C16.968 21.5812 17.3525 21.3218 17.472 21.162C17.5936 20.9884 17.729 20.8246 17.8772 20.6729C18.0541 20.4932 18.2132 20.3235 18.4109 20.1439C18.5146 19.9791 18.6303 19.8224 18.7567 19.6747L19.2311 19.1656C19.3487 18.9949 19.4782 18.8312 19.6155 18.6765C19.8231 18.4768 19.9624 18.3071 20.16 18.0975C20.16 17.9478 20.417 17.7282 20.7036 17.4686C20.7036 17.3788 20.8716 17.259 20.921 17.1592C21.0495 17.0624 21.1572 16.9396 21.2372 16.7998C21.3359 16.6301 21.5338 16.4205 21.6226 16.2608C21.5524 16.161 21.7906 15.9513 22.0575 15.7217C22.1562 15.562 22.2935 15.3923 22.4231 15.2226C22.5802 15.1198 22.69 14.9581 22.7295 14.7734C23.0743 14.5239 23.3026 14.3242 23.2532 14.2344C23.4034 14.1046 23.53 13.9489 23.6287 13.7752C24.0735 13.4957 23.9252 13.4458 24.2306 13.2262C24.4095 13.0375 24.5983 12.8579 24.7949 12.6872C24.9234 12.5374 24.9036 12.4376 25.1111 12.238C25.3186 12.0383 25.4767 11.8686 25.6151 11.6989C25.7821 11.5632 25.9146 11.3885 25.9996 11.1898C26.1735 10.9832 26.3591 10.7866 26.554 10.6009C26.6389 10.4352 26.7357 10.2755 26.8405 10.1217C27.0045 9.9201 27.1834 9.72945 27.3741 9.55277C27.3741 9.423 27.4236 9.29322 27.7794 9.03369C27.9276 8.87897 28.0629 8.71226 28.1845 8.53459C28.3722 8.34493 28.4909 8.17523 28.6786 7.98556C28.8663 7.7959 29.0343 7.61623 29.2618 7.41658C29.489 7.21694 29.5978 7.05723 29.6965 6.91746C29.9634 6.70784 30.0919 6.54814 30.2994 6.36845C30.5178 6.20174 30.7253 6.02108 30.922 5.82941C31.1007 5.64675 31.2925 5.47705 31.4951 5.32032C31.6631 5.16061 31.8508 5.0009 32.0583 4.83121L32.681 4.32212C32.8786 4.16239 33.1159 3.99269 33.3332 3.83299C33.5506 3.67326 33.7383 3.51355 33.9055 3.37381C34.0743 3.23504 34.3215 3.07434 34.4994 2.94456L35.0725 2.54528L35.6556 2.16595C35.8532 2.04617 36.0509 1.92639 36.2781 1.8066C36.5055 1.68681 36.6834 1.57701 36.8909 1.47719L37.5332 1.16774H37.6319L37.7802 1.08788C37.9285 1.00802 38.2151 0.928167 38.1359 0.948131L38.4325 0.848309C38.2546 0.908204 38.482 0.848309 38.482 0.848309C38.482 0.848309 38.6796 0.798399 38.5906 0.848309C39.065 0.698577 38.9266 0.768452 38.986 0.778435H39.3319H39.4799H39.8852C39.8852 0.848309 40.0028 0.868274 40.2114 0.878257C40.1125 0.968096 40.2895 0.958114 40.3685 0.998044C40.4485 1.03797 40.5364 1.05794 40.5276 1.11783C40.5178 1.17772 40.6559 1.19769 40.6956 1.25758C40.7351 1.31747 40.6956 1.39733 40.5967 1.5271C40.6263 1.59398 40.6263 1.67084 40.5967 1.73772C40.6559 1.79662 40.6956 1.86649 40.5967 1.99626C40.497 2.12603 40.7154 2.10606 40.834 2.13602C40.9525 2.16595 41.0612 2.21586 40.9426 2.33564C40.8231 2.45545 40.8439 2.57523 41.1599 2.5852C41.0365 2.65109 40.9663 2.78585 40.9821 2.9246C41.1007 2.9246 41.0909 3.00446 41.17 3.04438C41.2322 3.10827 41.3063 3.15918 41.3874 3.19412C41.2381 3.25402 41.2775 3.28395 41.3874 3.4846C41.4959 3.68325 41.3874 3.62335 41.4959 3.74313C41.6037 3.86292 41.6442 3.80304 41.585 3.95277C41.7234 3.95277 41.6541 4.13244 41.6839 4.2722C41.7135 4.41195 41.6839 4.33209 41.6839 4.51177C41.6236 4.59363 41.5701 4.68047 41.5247 4.7713C41.5098 4.85217 41.4634 4.92403 41.3972 4.97095C41.2775 5.08075 41.2983 5.13066 41.1986 5.19056C41.2983 5.36026 41.1986 5.36026 41.1205 5.51997C41.0306 5.51997 41.1205 5.64974 40.9722 5.64974C41.0612 5.64974 41.1402 5.64974 41.1205 5.7795C41.1007 5.90927 41.3082 5.7795 41.3082 5.84939C41.5455 5.84939 41.6343 6.06898 41.7135 5.98014C41.7135 6.04902 41.9111 6.13887 41.9309 6.10892C41.9506 6.07897 42.089 6.26863 42.1482 6.23867C42.2076 6.20874 42.2658 6.23867 42.3559 6.29858C42.3765 6.39541 42.4378 6.47926 42.5239 6.52818C42.6364 6.51121 42.7501 6.55711 42.8202 6.64796C43.0466 6.70784 43.1167 6.86757 43.2354 6.88753C43.354 6.90749 43.4615 7.02728 43.5516 7.05723C43.6524 7.1261 43.7572 7.18599 43.8679 7.2369C43.9863 7.31676 44.0556 7.32675 44.1741 7.40659C44.2927 7.48646 44.4311 7.61623 44.5991 7.78593C44.686 7.77295 44.774 7.8029 44.8362 7.86577C44.9252 7.86577 45.113 8.10534 45.1722 8.09537C45.278 8.1942 45.3935 8.28104 45.5172 8.3549C45.6565 8.47568 45.6959 8.42477 45.8343 8.56454C45.9717 8.70429 46.0716 8.72524 46.21 8.84403C46.297 8.89793 46.3898 8.94086 46.4866 8.97381C46.625 9.11355 46.6941 9.11355 46.8423 9.2533C46.8423 9.2533 47.0103 9.32317 47.1783 9.49287C47.3463 9.66257 47.3167 9.49287 47.4452 9.60268C47.5084 9.68153 47.5815 9.7514 47.6615 9.8123C47.722 9.8123 47.801 9.93209 47.8306 9.92212C47.9986 10.0918 48.0679 10.1118 48.1074 10.0619C48.2348 10.1816 48.4028 10.3513 48.3839 10.2216L48.6212 10.4611C48.6756 10.5041 48.7309 10.544 48.7892 10.5809C48.9178 10.6807 48.9967 10.7107 49.1154 10.8105C49.2231 10.8714 49.3258 10.9413 49.4218 11.0201C49.4919 11.0601 49.5541 11.111 49.6095 11.1699C49.6095 11.1699 49.738 11.2797 49.7676 11.2797C49.8693 11.3685 49.9781 11.4494 50.0927 11.5193C50.1717 11.6091 50.2114 11.6191 50.3012 11.7189C50.3901 11.8187 50.3794 11.7189 50.4583 11.8287L50.7658 12.0483C50.8546 12.1082 51.0325 12.3078 51.0621 12.2579C51.1906 12.4177 51.2301 12.4376 51.25 12.4177C51.3498 12.4965 51.4367 12.5913 51.5068 12.6972C51.5068 12.5973 51.6541 12.767 51.7639 12.8369C51.8725 12.9068 51.8429 12.8369 51.9516 13.0166H52.0503C52.0999 13.0615 52.1522 13.1014 52.2085 13.1364C52.2738 13.1733 52.3351 13.2202 52.3863 13.2761C52.4458 13.2761 52.5247 13.4059 52.5346 13.3859C52.5445 13.3659 52.6335 13.4458 52.7215 13.5456C52.8103 13.6455 52.841 13.6355 52.8805 13.6654C52.9724 13.7273 53.0525 13.8042 53.1178 13.895C53.1178 13.895 53.3045 14.0148 53.3943 14.0847C53.4764 14.1166 53.5565 14.1565 53.6306 14.2045C53.6909 14.2614 53.7532 14.3153 53.8194 14.3642C53.8775 14.4071 53.934 14.454 53.9874 14.5039C54.0605 14.5648 54.1445 14.6117 54.2343 14.6437C54.3629 14.7355 54.4844 14.8363 54.5999 14.9431C54.6791 15.047 54.7847 15.1258 54.9055 15.1727C54.9855 15.1727 55.1239 15.3324 55.1338 15.2626C55.3018 15.4423 55.3906 15.4922 55.4599 15.5021C55.5685 15.604 55.6842 15.6968 55.8058 15.7816C55.8877 15.8635 55.9845 15.9284 56.0922 15.9713C56.1525 16.0032 56.2098 16.0442 56.2602 16.0911L56.4876 16.3207C56.4876 16.3207 56.6458 16.3806 56.7741 16.4814C56.9026 16.5802 57.0114 16.69 57.1101 16.7599C57.2268 16.8318 57.3365 16.9146 57.4362 17.0094C57.4362 17.0094 57.6141 17.1292 57.7327 17.2191C57.8514 17.3089 57.9501 17.3988 58.0194 17.4387C58.0885 17.4796 58.2466 17.6284 58.3247 17.6783L58.474 17.7881L58.6319 17.9278C58.6914 17.9278 58.7999 18.0376 58.8978 18.1075C58.9612 18.1843 59.0263 18.2582 59.0965 18.3271C59.1637 18.375 59.2239 18.4319 59.2735 18.4968C59.3919 18.5966 59.4423 18.6166 59.5599 18.7274C59.6567 18.7913 59.7487 18.8611 59.8378 18.936C59.8378 18.936 59.9365 19.0258 60.0058 19.0957C60.0749 19.1656 60.1439 19.2555 60.1332 19.1955C60.1242 19.1357 60.3714 19.4351 60.4207 19.4451C60.5877 19.6448 60.5877 19.5749 60.6876 19.6547L60.9247 19.9242C60.9247 19.9242 61.0236 20.034 61.073 20.074C61.154 20.1538 61.2439 20.2247 61.3399 20.2836C61.4407 20.3984 61.5493 20.5052 61.666 20.603C61.666 20.603 61.8834 20.8127 61.9516 20.8526L62.1898 21.0223C62.2807 21.1171 62.3666 21.2178 62.4457 21.3218C62.338 21.1221 62.4455 21.2518 62.5949 21.4724C62.5949 21.3816 62.7628 21.5912 62.8114 21.6012L62.9703 21.7609C63.0298 21.7609 63.089 21.8807 63.1482 21.9405C63.2076 22.0006 63.3658 22.1503 63.4052 22.1503C63.4972 22.2471 63.5959 22.3378 63.7018 22.4197C63.7018 22.3599 63.8391 22.4897 63.9586 22.6295C64.0772 22.7691 64.1661 22.8989 64.1463 22.8191C64.2452 22.9587 64.2354 22.9089 64.2935 22.9698C64.354 23.0287 64.4132 22.9698 64.5615 23.1885C64.6445 23.2423 64.7236 23.3032 64.7986 23.3681C64.9468 23.5877 64.937 23.5378 64.937 23.5079C64.937 23.478 65.1346 23.7574 65.1543 23.7474C65.1741 23.7374 65.3916 24.017 65.362 23.8971L65.5892 24.1568C65.6415 24.1996 65.6919 24.2465 65.7365 24.2964C65.8234 24.3424 65.9005 24.4033 65.9647 24.476L66.1228 24.6358L66.281 24.7955C66.3639 24.8795 66.4402 24.9692 66.5082 25.0651C66.5082 25.0053 66.5082 25.0651 66.5874 25.0651C66.6674 25.168 66.7631 25.2558 66.874 25.3245L67.1111 25.5144C67.1794 25.5941 67.1794 25.5144 67.2791 25.6841C67.3245 25.7099 67.365 25.7428 67.3978 25.7838C67.4727 25.8436 67.5399 25.9146 67.5954 25.9933L67.713 26.1032C67.713 26.0334 67.9599 26.3628 67.882 26.173C67.957 26.2788 68.0391 26.3788 68.129 26.4725C68.129 26.4725 68.2466 26.6023 68.3562 26.7521C68.3562 26.6621 68.4058 26.7521 68.3562 26.6721C68.4324 26.7739 68.5154 26.8709 68.6034 26.9627C68.6034 26.9627 68.801 27.1613 68.801 27.0815C68.9018 27.2243 69.0213 27.352 69.1557 27.4618H69.2458L69.4423 27.7003C69.4423 27.7003 69.5818 27.7902 69.6805 27.8799C69.7794 27.9699 69.8485 28.0297 69.9474 28.1296C70.0461 28.2295 70.0559 28.2295 70.1055 28.2893C70.1805 28.3682 70.2498 28.451 70.313 28.5388C70.3623 28.5388 70.5303 28.7585 70.5007 28.6586C70.6095 28.8084 70.6687 28.8682 70.6885 28.8682C70.7399 28.9331 70.7962 28.9932 70.8565 29.0479C70.8565 29.0479 71.0343 29.2176 71.0541 29.1976C71.1124 29.2986 71.1855 29.3894 71.2716 29.4672C71.2716 29.3972 71.4396 29.6878 71.4583 29.6878C71.4791 29.6878 71.5978 29.7967 71.6274 29.7767C71.7261 29.9163 71.7261 29.8964 71.8447 30.0572C71.8447 29.9963 71.8941 30.0571 71.9436 30.1261C72.0247 30.2179 72.1106 30.3047 72.1996 30.3866L72.3586 30.5752L72.4861 30.705C72.5759 30.7849 72.6847 30.9145 72.6935 30.8857C72.9119 31.1941 72.9407 31.1941 72.9802 31.2041C73.0207 31.2151 73.169 31.4646 73.1877 31.4745C73.2402 31.5564 73.3044 31.6302 73.3765 31.6932C73.4655 31.804 73.4852 31.7932 73.594 31.9128C73.7026 32.0326 73.7125 32.0725 73.7215 32.0536C73.8607 32.2422 73.7916 32.1224 73.9002 32.2821C73.9002 32.2821 73.9794 32.3621 74.0682 32.4819L74.2156 32.6616C74.2156 32.5617 74.266 32.6616 74.345 32.8022C74.4231 32.9409 74.345 32.8022 74.434 32.8911C74.4863 32.9789 74.5485 33.0589 74.6218 33.1316C74.6909 33.2006 74.8194 33.3703 74.8292 33.3503L74.9972 33.5599C74.9972 33.5001 75.0466 33.5599 75.0762 33.6308C75.106 33.6997 75.2245 33.8295 75.1554 33.6897C75.2186 33.7875 75.2877 33.8804 75.3628 33.9702C75.3628 33.9702 75.4221 33.9701 75.5605 34.1888C75.6978 34.4084 75.7285 34.4294 75.7087 34.3685C75.857 34.5891 75.7978 34.4782 75.8274 34.4981L76.025 34.7677C76.025 34.8386 76.1634 34.9574 76.113 34.8676C76.1732 34.9285 76.2266 34.9953 76.2719 35.0672C76.3354 35.1292 76.3887 35.199 76.4301 35.2768C76.3511 35.1071 76.4301 35.2768 76.5586 35.3668C76.6861 35.4565 76.7167 35.5963 76.6575 35.4764C76.7455 35.5874 76.8244 35.704 76.8935 35.8258C76.8935 35.7571 76.9738 35.9058 77.0132 35.9556C77.0527 36.0065 77.0132 35.9556 77.122 36.0755C77.122 36.0755 77.29 36.3149 77.2701 36.2562L77.3591 36.3949C77.4876 36.6145 77.4876 36.6344 77.5468 36.7343C77.6458 36.9339 77.6061 36.8351 77.5468 36.7343C77.5884 36.803 77.622 36.8779 77.6458 36.9538C77.6754 37.0188 77.702 37.0866 77.7247 37.1535C77.6655 37.0936 77.7247 37.2143 77.7247 37.2434C77.7535 37.3442 77.793 37.4409 77.8423 37.5327C77.8423 37.5327 77.7346 37.5327 77.8423 37.7824C77.8423 37.7824 77.7346 37.7824 77.7445 37.9631C77.7543 38.1417 77.7445 38.2815 77.7445 38.3214C77.7445 38.3613 77.6161 38.3214 77.6951 38.4811C77.6823 38.5439 77.6823 38.6088 77.6951 38.6718C77.6348 38.7516 77.6951 38.9902 77.5468 39.0012C77.3986 39.0102 77.5468 39.2598 77.4085 39.2507C77.2701 39.2397 77.3482 39.4794 77.2207 39.4395C77.0922 39.3994 77.0429 39.5004 77.0231 39.6491C77.0034 39.7988 76.9143 39.8298 76.8146 39.8487C76.7167 39.8697 76.6575 39.9785 76.6071 40.0792C76.4796 39.9594 76.4103 39.9486 76.3599 39.9685C76.3116 39.9885 76.2423 39.9685 76.2325 40.0483C76.2226 40.1282 75.9756 40.0483 75.9658 40.2489C75.7681 40.1482 75.7581 40.3289 75.6188 40.2489C75.4815 40.1692 75.4618 40.2489 75.3628 40.1382C75.2639 40.0283 75.2442 40.1382 75.1247 40.0283C75.1247 40.1382 75.0269 40.1592 74.9874 40.2279C74.8964 40.2031 74.8005 40.2031 74.7095 40.2279C74.5911 40.1592 74.5426 40.2279 74.4439 40.2279C74.3756 40.215 74.3045 40.2379 74.2559 40.2888C74.0879 40.2091 73.9794 40.2091 73.8212 40.1382C73.6631 40.0682 73.5642 40.1382 73.4852 40.1382C73.4061 40.1382 73.2183 40.0184 73.1394 40.0792L72.8428 39.9195C72.7807 39.8796 72.7143 39.8497 72.6452 39.8298C72.5562 39.8298 72.3882 39.6889 72.2796 39.6601C72.1135 39.6701 71.9514 39.5992 71.8447 39.4694C71.8447 39.4694 71.6767 39.3495 71.5879 39.2906C71.5434 39.3406 71.49 39.3816 71.4298 39.4104C71.3802 39.4104 71.242 39.2906 71.1925 39.3495C71.0146 39.1209 71.0146 39.3495 70.8962 39.2297C70.7775 39.1101 70.7082 39.3705 70.5599 39.2297C70.4711 39.1958 70.3783 39.175 70.2834 39.1709C70.2834 39.2507 70.1055 39.07 70.0066 38.9503C69.9079 38.8315 70.0066 39.081 69.8485 38.8604C69.7871 38.8055 69.7309 38.7456 69.6805 38.6807C69.6015 38.511 69.6114 38.5708 69.6114 38.591C69.6114 38.6109 69.5125 38.4012 69.5026 38.4012C69.4138 38.2525 69.3445 38.1517 69.3247 38.1816C69.226 38.0219 69.0876 37.7625 69.1271 37.9322C69.0778 37.8333 69.0381 37.7934 68.9482 37.6237C68.8602 37.453 68.8109 37.363 68.8802 37.6237C68.8802 37.6237 68.7802 37.453 68.7407 37.4031C68.7012 37.3531 68.6527 37.2833 68.6034 37.2143C68.554 37.1435 68.6034 37.2143 68.5143 37.1246C68.5143 37.1246 68.4255 37.0137 68.3759 36.9339C68.3266 36.8539 68.2575 36.7642 68.2378 36.7551C68.1863 36.6594 68.1271 36.5684 68.0599 36.4846C68.0599 36.5455 67.8919 36.2751 67.882 36.3448C67.8719 36.4157 67.7338 36.0954 67.7919 36.285C67.7039 36.1353 67.713 36.2053 67.6546 36.1054C67.5895 36.0324 67.534 35.9516 67.4866 35.8659C67.4372 35.7969 67.4866 35.8659 67.289 35.5763C67.289 35.7571 67.2002 35.5763 67.1794 35.6361C67.0914 35.4764 67.042 35.4066 67.0508 35.4864C66.9925 35.3776 67.0023 35.4276 66.9431 35.3167L66.8037 35.0672C66.8037 35.2668 66.7356 35.1171 66.5972 34.9185C66.4589 34.7187 66.5972 35.0083 66.5082 34.8577L66.3599 34.6788C66.2908 34.5781 66.202 34.4294 66.2218 34.5282C66.1447 34.4313 66.0794 34.3284 66.0231 34.2198V34.2786C66.0231 34.2487 65.9252 34.1388 65.8362 33.989V34.059C65.7789 33.9392 65.7068 33.8285 65.6189 33.7296C65.529 33.6098 65.5498 33.7296 65.4805 33.7296C65.4103 33.7296 65.273 33.3603 65.2927 33.471C65.2423 33.3743 65.1839 33.2833 65.1149 33.2006C65.1149 33.2615 64.9863 33.0807 64.9271 33.0309C64.8679 32.981 64.8381 33.0309 64.7196 32.8022C64.6692 32.8022 64.5319 32.5617 64.522 32.6115C64.4538 32.5218 64.3767 32.4388 64.2935 32.3621C64.1661 32.1733 64.1661 32.2632 64.0772 32.1525C63.9764 32.0625 63.8903 31.9588 63.8202 31.8441C63.7244 31.7741 63.6434 31.6852 63.5831 31.5834C63.4941 31.4745 63.513 31.5834 63.3658 31.3638C63.2965 31.3638 63.1679 31.1752 63.1087 31.1752L62.8618 30.9355C62.7876 30.8717 62.7253 30.7979 62.674 30.7149H62.5751C62.501 30.629 62.4327 30.5393 62.3676 30.4455C62.3676 30.4455 62.1599 30.2358 62.0701 30.156C61.9743 30.083 61.8813 30.0022 61.7943 29.9163C61.742 29.8465 61.6828 29.7827 61.6156 29.7267L61.4682 29.5769C61.3498 29.4382 61.2706 29.3972 61.162 29.2676C61.1164 29.2426 61.073 29.2116 61.0335 29.1777C60.99 29.0848 60.9247 29.0031 60.8458 28.9391C60.7863 28.9391 60.6778 28.8283 60.6183 28.8084C60.566 28.6786 60.485 28.5628 60.3802 28.469C60.3111 28.4022 60.2517 28.3243 60.2034 28.2395C60.0956 28.1875 60.0047 28.1086 59.9365 28.0098C59.9365 28.0098 59.9365 28.0698 59.8466 28.0098C59.7586 27.9499 59.7685 28.0098 59.6895 27.8301C59.6103 27.6504 59.482 27.6006 59.4325 27.5906C59.3564 27.4907 59.2674 27.4039 59.1658 27.331C59.0887 27.1944 58.9839 27.0756 58.8583 26.9816C58.81 26.9816 58.6618 26.782 58.553 26.6522C58.553 26.6522 58.4146 26.5824 58.3455 26.5625C58.2229 26.4437 58.1103 26.3128 58.0095 26.173C57.9095 26.0833 57.8316 26.0133 57.7921 26.0633C57.7525 26.1132 57.6626 25.9036 57.6141 25.8436C57.5647 25.7838 57.466 25.6539 57.4562 25.6841C57.3079 25.4643 57.2189 25.4045 57.2287 25.5642C57.0607 25.3245 56.9421 25.175 56.8818 25.1648C56.7583 25.057 56.6466 24.9363 56.5468 24.8055C56.4618 24.7707 56.3818 24.7236 56.3098 24.6659C56.2405 24.6659 56.201 24.6659 56.0429 24.4661L55.8255 24.1767C55.7661 24.1067 55.7661 24.1767 55.697 24.0668C55.697 24.1267 55.5882 24.0668 55.5092 24.0668C55.4301 24.0668 55.3709 23.8971 55.3018 23.7972C55.3018 23.7972 55.2325 23.7972 55.114 23.5478C55.114 23.6275 54.9559 23.4578 54.8471 23.3382C54.7383 23.2184 54.7087 23.3382 54.6495 23.2782C54.5556 23.1685 54.4695 23.0516 54.3925 22.9288C54.3925 22.9288 54.3135 22.9288 54.2541 22.879C54.1948 22.8291 54.1159 22.7192 54.0565 22.6794C54.0119 22.6134 53.9508 22.5616 53.8786 22.5296C53.8271 22.4598 53.7631 22.3987 53.6909 22.3499C53.6356 22.2821 53.5732 22.2222 53.5031 22.1703C53.345 21.9405 53.266 21.8807 53.2066 21.8807C53.1474 21.8807 53.0583 21.8209 52.9199 21.6412C52.8429 21.5604 52.753 21.4925 52.6532 21.4416C52.5839 21.3318 52.5148 21.2618 52.5148 21.3018C52.4476 21.2499 52.3884 21.19 52.337 21.1221C52.2599 21.0323 52.165 20.9574 52.0602 20.9025C52.0109 20.9025 51.922 20.7428 51.8922 20.7328C51.8212 20.6779 51.7607 20.61 51.7143 20.5332C51.6452 20.5332 51.6156 20.613 51.4861 20.4543C51.3586 20.2936 51.1996 20.0939 51.1807 20.2048C51.0226 20.0041 50.9524 20.0041 50.914 20.064C50.8615 19.9831 50.7933 19.9123 50.7162 19.8544C50.6658 19.8114 50.6135 19.7715 50.5581 19.7346C50.4495 19.6447 50.3506 19.5549 50.3012 19.6048C50.1431 19.3952 50.1332 19.525 49.9751 19.3253C49.8615 19.2385 49.7557 19.1416 49.6588 19.0358C49.6588 19.1057 49.6589 19.0957 49.5501 19.0358C49.4583 18.94 49.3783 18.8322 49.313 18.7164C49.313 18.8062 49.1351 18.6066 49.1154 18.7164C49.0263 18.6565 48.8781 18.4668 48.7685 18.367C48.7685 18.367 48.6706 18.4369 48.5421 18.2872C48.4138 18.1374 48.3445 18.1275 48.2159 17.9677L47.9295 17.7481C47.8722 17.6833 47.7871 17.6493 47.7012 17.6583C47.6429 17.6084 47.5332 17.4487 47.5045 17.4597C47.3959 17.279 47.4156 17.3988 47.3463 17.3189C47.2772 17.239 47.1882 17.3189 47.0103 17.0294C46.8957 16.9516 46.7871 16.8647 46.6842 16.7699C46.545 16.5902 46.4965 16.6401 46.3482 16.4614C46.2978 16.4614 46.2188 16.4614 46.0914 16.3606C45.9629 16.2608 45.9717 16.2408 45.8938 16.141C45.8146 16.0412 45.8245 16.141 45.7356 16.0112C45.6466 15.8815 45.4885 15.7717 45.4292 15.7916C45.37 15.8116 45.1919 15.562 45.113 15.552C45.034 15.5421 45.0231 15.4922 44.9647 15.4423C44.9055 15.3923 44.8559 15.3524 44.7967 15.2825C44.7364 15.2137 44.5498 15.0529 44.4607 14.993C44.3719 14.9332 44.3719 14.993 44.3026 14.8932C44.2335 14.7934 44.1741 14.7435 44.1148 14.6936C44.0556 14.6437 43.9271 14.5638 43.8876 14.6237C43.8479 14.6836 43.7788 14.5339 43.7482 14.5339C43.6612 14.462 43.5871 14.3742 43.5319 14.2743C43.4231 14.1945 43.3439 14.1545 43.3045 14.2743C43.0861 13.9449 43.1167 14.1545 42.9487 13.9349C42.7807 13.7163 42.7511 13.8052 42.6325 13.6954C42.513 13.5856 42.4735 13.6954 42.3055 13.4358C42.2471 13.4358 42.1879 13.5067 42.0298 13.2861C41.8716 13.0665 41.842 13.1863 41.7135 13.0665C41.585 12.9467 41.5356 12.9767 41.4663 12.9767C41.2983 12.767 41.2885 12.9068 41.0701 12.5674C40.9821 12.5674 40.8439 12.3977 40.7836 12.4576C40.6461 12.3078 40.5079 12.1781 40.4485 12.219C40.3892 12.2589 40.3199 11.9694 40.2311 11.9694C40.1421 11.9694 40.0631 11.7588 39.994 11.689C39.9247 11.6191 39.994 11.9086 39.7954 11.4893C39.7954 11.689 39.7271 11.4893 39.6778 11.4893C39.6274 11.4893 39.5394 11.3496 39.5877 11.5392C39.4959 11.4494 39.4138 11.3486 39.3407 11.2397C39.3407 11.3695 39.154 11.1699 39.0452 11.0501C38.9365 10.9303 38.897 11.0501 38.9463 10.9203C38.8466 11.0401 38.6391 10.7217 38.5412 10.6708C38.4423 10.6209 38.4719 10.6708 38.4127 10.5111C38.2842 10.5909 38.3239 10.3613 38.225 10.2016C38.0866 10.2715 38.1055 10.2016 37.978 9.96204C37.978 9.96204 37.8692 10.0219 37.978 10.0219C38.0866 10.0219 37.7999 9.95205 37.7999 9.72346C37.7999 9.49287 37.7506 9.72347 37.7407 9.54278C37.8791 9.62264 37.7407 9.49287 37.8396 9.66257C37.6508 9.45295 37.7901 9.45295 37.721 9.41303C37.6508 9.37308 37.6716 9.27326 37.6114 9.34313C37.6114 9.13351 37.7901 9.27326 37.6114 9.02372V8.74421C37.6815 8.74421 37.5431 8.62442 37.5629 8.57451C37.5826 8.5246 37.9285 8.44473 37.7309 8.1852C37.7703 8.1952 37.5628 8.13529 37.5826 8.21516Z" fill="black"/>
</g>
<defs>
<clipPath id="clip0_5_607">
<rect width="84" height="77" fill="white"/>
</clipPath>
</defs>
</svg>
